:FULLY-SPECIFIED
:DEGREES
100
root 2.88844 16.4426 -1.9583 -42.8857 -87.4071 58.2925
lowerback -6.27945 0.854641 0.846309
upperback -4.44469 0.976693 -1.35706
thorax -1.01964 0.402173 -1.81739
lowerneck -14.6209 -2.136 1.16856
upperneck 19.5244 -3.69995 1.31943
head 8.50007 -1.58921 -0.187442
rclavicle 1.98785e-014 -2.42269e-015
rhumerus -31.5896 -2.11489 -81.2587
rradius 35.6277
rwrist 15.5385
rhand -26.4662 -6.1752
rfingers 7.12502
rthumb 0.095489 -36.1549
lclavicle 1.98785e-014 -2.42269e-015
lhumerus -43.0024 -8.14573 89.4849
lradius 36.5649
lwrist -7.30623
lhand -39.2433 -3.42253
lfingers 7.12502
lthumb -12.2382 26.1994
rfemur -23.66 11.2709 23.698
rtibia 27.0733
rfoot -17.0596 -23.0108
rtoes -4.50418
lfemur -43.5482 -5.22827 -22.432
ltibia 54.8355
lfoot -13.9361 8.45258
ltoes -12.6349
101
root 2.89477 16.44 -1.95956 -43.2266 -87.447 58.7348
lowerback -6.32319 0.9188 0.891006
upperback -4.49771 1.0571 -1.38807
thorax -1.04588 0.439521 -1.87
lowerneck -14.5711 -2.17861 1.17164
upperneck 19.4782 -3.7534 1.30508
head 8.47503 -1.61654 -0.19779
rclavicle -1.51076e-014 2.60812e-014
rhumerus -31.2531 -1.54374 -81.4152
rradius 36.0112
rwrist 15.2747
rhand -26.4693 -6.25826
rfingers 7.12502
rthumb 0.092512 -36.238
lclavicle -1.51076e-014 2.60812e-014
lhumerus -43.2958 -7.83948 89.3272
lradius 36.461
lwrist -7.41891
lhand -39.1762 -3.32194
lfingers 7.12502
lthumb -12.1735 26.3038
rfemur -22.9688 11.4983 23.7947
rtibia 26.6093
rfoot -17.5263 -23.2326
rtoes -4.22851
lfemur -43.8895 -5.65582 -22.315
ltibia 52.2071
lfoot -14.0093 8.86563
ltoes -14.1282
102
root 2.89737 16.4487 -1.95974 -44.9961 -87.5131 60.5566
lowerback -6.3683 0.995573 0.929664
upperback -4.51144 1.15628 -1.42133
thorax -1.02988 0.487577 -1.92005
lowerneck -14.61 -2.19821 1.18459
upperneck 19.4812 -3.78143 1.29514
head 8.48264 -1.62916 -0.206984
rclavicle 5.56597e-015 -1.44895e-014
rhumerus -30.8775 -0.952547 -81.5951
rradius 36.3015
rwrist 14.64
rhand -26.7127 -5.90496
rfingers 7.12502
rthumb -0.142633 -35.8847
lclavicle 5.56597e-015 -1.44895e-014
lhumerus -43.5538 -7.56631 89.1931
lradius 36.3195
lwrist -7.46923
lhand -39.2409 -3.40721
lfingers 7.12502
lthumb -12.2359 26.2149
rfemur -22.0978 11.6645 23.8835
rtibia 25.9486
rfoot -17.6709 -23.3527
rtoes -4.51873
lfemur -44.0769 -6.15394 -22.126
ltibia 49.3539
lfoot -13.8729 9.0967
ltoes -14.3943
103
root 2.90566 16.458 -1.96265 -45.6015 -87.5494 61.3783
lowerback -6.49155 1.05131 0.923092
upperback -4.58685 1.2258 -1.44139
thorax -1.03652 0.519968 -1.93203
lowerneck -14.6539 -2.22696 1.17038
upperneck 19.4656 -3.82014 1.31043
head 8.48599 -1.6462 -0.204382
rclavicle -2.8625e-014 -6.21202e-018
rhumerus -30.5264 -0.669094 -81.6258
rradius 36.6178
rwrist 15.1962
rhand -26.5544 -6.00668
rfingers 7.12502
rthumb 0.0102923 -35.9864
lclavicle -2.8625e-014 -6.21202e-018
lhumerus -43.7936 -7.256 89.0455
lradius 36.2309
lwrist -7.43517
lhand -39.209 -3.51982
lfingers 7.12502
lthumb -12.2052 26.1041
rfemur -21.423 11.8399 23.9557
rtibia 25.2286
rfoot -17.7129 -23.5205
rtoes -4.36013
lfemur -44.3936 -6.63413 -21.866
ltibia 46.32
lfoot -13.7151 8.9753
ltoes -14.313
104
root 2.91211 16.4713 -1.96414 -47.119 -87.5817 63.0746
lowerback -6.60354 1.11575 0.895753
upperback -4.64391 1.30878 -1.4721
thorax -1.03012 0.559945 -1.94238
lowerneck -14.6786 -2.25245 1.17303
upperneck 19.4286 -3.85752 1.32755
head 8.47833 -1.66161 -0.203332
rclavicle -3.18055e-015 9.56651e-015
rhumerus -30.1458 -0.135035 -81.7941
rradius 36.871
rwrist 14.4547
rhand -26.571 -6.0732
rfingers 7.12502
rthumb -0.00571374 -36.0529
lclavicle -3.18055e-015 9.56651e-015
lhumerus -43.9985 -7.07288 88.9478
lradius 36.1135
lwrist -7.37093
lhand -39.2098 -3.488
lfingers 7.12502
lthumb -12.206 26.1359
rfemur -20.6156 11.9453 24.0026
rtibia 24.3545
rfoot -17.7921 -23.5646
rtoes -4.52607
lfemur -44.5052 -7.2178 -21.5809
ltibia 43.1108
lfoot -13.5201 8.83199
ltoes -14.4117
105
root 2.91478 16.485 -1.96427 -49.0394 -87.6358 65.0854
lowerback -6.67736 1.19556 0.904134
upperback -4.65333 1.41314 -1.5201
thorax -0.993505 0.611148 -1.98929
lowerneck -14.7623 -2.28284 1.20011
upperneck 19.4007 -3.91107 1.35697
head 8.48435 -1.68069 -0.204954
rclavicle -1.43125e-014 -1.54804e-014
rhumerus -29.8119 0.235188 -81.9307
rradius 37.1274
rwrist 14.2607
rhand -26.7727 -5.99474
rfingers 7.12502
rthumb -0.200522 -35.9744
lclavicle -1.43125e-014 -1.54804e-014
lhumerus -44.163 -6.85338 88.7686
lradius 35.9889
lwrist -7.58524
lhand -39.155 -3.30528
lfingers 7.12502
lthumb -12.1531 26.3217
rfemur -19.6946 11.9918 24.0997
rtibia 23.4666
rfoot -17.8416 -23.6311
rtoes -5.03911
lfemur -44.4257 -7.94097 -21.1793
ltibia 39.776
lfoot -13.3644 8.66059
ltoes -14.5025
106
root 2.9196 16.4931 -1.96486 -50.6568 -87.7436 66.8072
lowerback -6.74826 1.2799 0.929159
upperback -4.67095 1.52274 -1.52297
thorax -0.967314 0.665098 -1.99867
lowerneck -14.7189 -2.30912 1.20284
upperneck 19.2444 -3.94275 1.37729
head 8.4241 -1.69467 -0.200048
rclavicle -6.36111e-015 -1.17531e-014
rhumerus -29.4958 0.619512 -82.0336
rradius 37.4179
rwrist 13.9254
rhand -26.9884 -6.07049
rfingers 7.12502
rthumb -0.408897 -36.0498
lclavicle -6.36111e-015 -1.17531e-014
lhumerus -44.3105 -6.55904 88.6071
lradius 35.8893
lwrist -7.63687
lhand -39.0926 -3.34881
lfingers 7.12502
lthumb -12.093 26.2817
rfemur -18.7873 12.0623 24.24
rtibia 22.5498
rfoot -17.7706 -23.5865
rtoes -5.22095
lfemur -44.2942 -8.73301 -20.6448
ltibia 36.3508
lfoot -13.106 8.55822
ltoes -14.9494
107
root 2.92435 16.5028 -1.96453 -51.4451 -87.8321 67.746
lowerback -6.87461 1.36051 0.961117
upperback -4.69943 1.62564 -1.54084
thorax -0.921329 0.714983 -2.02655
lowerneck -14.7254 -2.34312 1.26248
upperneck 19.1452 -3.99577 1.36735
head 8.39044 -1.7168 -0.218302
rclavicle 1.59028e-014 -9.31803e-015
rhumerus -29.1361 0.670144 -82.0198
rradius 37.5491
rwrist 14.3108
rhand -26.8313 -6.00349
rfingers 7.12502
rthumb -0.257175 -35.9831
lclavicle 1.59028e-014 -9.31803e-015
lhumerus -44.4464 -6.33915 88.4446
lradius 35.7433
lwrist -7.87982
lhand -39.0778 -3.24138
lfingers 7.12502
lthumb -12.0786 26.39
rfemur -17.9381 12.0491 24.3717
rtibia 21.6427
rfoot -17.7475 -23.445
rtoes -5.28806
lfemur -44.1335 -9.74352 -19.954
ltibia 32.9212
lfoot -12.8051 8.8083
ltoes -15.2247
108
root 2.93014 16.5072 -1.96418 -52.2731 -87.8757 68.683
lowerback -6.94901 1.3967 0.929126
upperback -4.70575 1.67439 -1.53724
thorax -0.885656 0.740034 -2.00031
lowerneck -14.8213 -2.35462 1.24617
upperneck 19.1316 -4.01513 1.4036
head 8.40443 -1.72195 -0.206914
rclavicle 1.11319e-014 1.11816e-015
rhumerus -28.7707 1.02579 -82.1139
rradius 37.7427
rwrist 13.8552
rhand -26.877 -5.94864
rfingers 7.12502
rthumb -0.301259 -35.9282
lclavicle 1.11319e-014 1.11816e-015
lhumerus -44.5693 -6.15086 88.3582
lradius 35.6354
lwrist -7.62488
lhand -39.2119 -3.40716
lfingers 7.12502
lthumb -12.2079 26.2166
rfemur -17.0571 11.9918 24.4878
rtibia 20.745
rfoot -17.7117 -23.373
rtoes -5.88164
lfemur -43.9089 -10.9388 -19.152
ltibia 29.5652
lfoot -12.4111 9.46045
ltoes -15.8525
